<svg width="420" height="420" viewBox="0 0 420 420" fill="none" xmlns="http://www.w3.org/2000/svg">
<ellipse cx="210" cy="210" rx="210" ry="210" transform="rotate(180 210 210)" fill="url(#paint0_linear_613_7694)"/>
<mask id="mask0_613_7694" style="mask-type:alpha" maskUnits="userSpaceOnUse" x="25" y="25" width="370" height="370">
<path d="M25 210C25 107.827 107.827 25.0001 210 25C312.173 25 395 107.827 395 210C395 312.173 312.173 395 210 395C107.827 395 25 312.173 25 210Z" fill="url(#paint1_linear_613_7694)"/>
</mask>
<g mask="url(#mask0_613_7694)">
<path d="M210.939 394.032C314.708 394.032 397.643 301.456 397.643 195.201C371.547 218.181 287.313 248.751 195.433 172.53C101.895 94.9324 23.1157 128.091 23.1157 189.407C23.1157 189.407 23.0508 198.218 23.0508 201.639C23.0508 307.895 107.171 394.032 210.939 394.032Z" fill="url(#paint2_radial_613_7694)"/>
<path d="M260.646 206.483C295.515 212.347 321.527 210.065 343.12 194.414C362.456 180.399 391.571 167.792 394.47 196.257C399.369 244.361 303.659 284.736 221.184 287.851C138.709 290.967 17.216 235.637 32.9978 156.996C34.795 148.041 39.1711 139.02 50.1302 125.758C61.6917 111.768 100.418 89.1284 136.344 103.704C193.168 121.223 197.671 195.891 260.646 206.483Z" fill="url(#paint3_radial_613_7694)"/>
<path opacity="0.3" fill-rule="evenodd" clip-rule="evenodd" d="M162.036 163.324C181.238 153.359 194.356 133.294 194.356 110.166C194.356 77.1098 167.559 50.3125 134.503 50.3125C121.266 50.3125 109.032 54.6095 99.1212 61.8848L98.3397 60.6706C-45.4516 159.64 35.3502 335.207 100.484 370.196C111.968 372.86 108.661 362.097 102.922 343.416C90.2613 302.212 65.7641 222.483 162.036 163.324Z" fill="url(#paint4_linear_613_7694)"/>
</g>
<defs>
<linearGradient id="paint0_linear_613_7694" x1="289.43" y1="410.942" x2="139.628" y2="27.3287" gradientUnits="userSpaceOnUse">
<stop stop-color="white"/>
<stop offset="1" stop-color="#FAE7FD"/>
</linearGradient>
<linearGradient id="paint1_linear_613_7694" x1="210" y1="395" x2="210" y2="25.0001" gradientUnits="userSpaceOnUse">
<stop stop-color="white"/>
<stop offset="1" stop-color="#FAE7FD"/>
</linearGradient>
<radialGradient id="paint2_radial_613_7694" cx="0" cy="0" r="1" gradientUnits="userSpaceOnUse" gradientTransform="translate(62.5 279.504) rotate(1.73961) scale(444.705 652.44)">
<stop stop-color="#2D01E2"/>
<stop offset="0.602428" stop-color="#DD4AC8"/>
</radialGradient>
<radialGradient id="paint3_radial_613_7694" cx="0" cy="0" r="1" gradientUnits="userSpaceOnUse" gradientTransform="translate(172.21 13.0013) rotate(62.2299) scale(374.628 803.671)">
<stop offset="0.505088" stop-color="#DD4AC8"/>
<stop offset="0.917785" stop-color="#2D01E2"/>
</radialGradient>
<linearGradient id="paint4_linear_613_7694" x1="105.696" y1="49.3388" x2="120.613" y2="382.862" gradientUnits="userSpaceOnUse">
<stop stop-color="white"/>
<stop offset="1" stop-color="white" stop-opacity="0"/>
</linearGradient>
</defs>
</svg>
